<svg xmlns="http://www.w3.org/2000/svg" xmlns:xlink="http://www.w3.org/1999/xlink" class="httpgd" width="801.00" height="427.00" viewBox="0 0 640.80 341.60">
<defs>
  <style type='text/css'><![CDATA[
    .httpgd line, .httpgd polyline, .httpgd polygon, .httpgd path, .httpgd rect, .httpgd circle {
      fill: none;
      stroke: #000000;
      stroke-linecap: round;
      stroke-linejoin: round;
      stroke-miterlimit: 10.00;
    }
  ]]></style>
<clipPath id="c0"><rect x="0.00" y="0.00" width="640.80" height="341.60"/></clipPath>
<clipPath id="c1"><rect x="35.71" y="40.36" width="297.07" height="230.31"/></clipPath>
<clipPath id="c2"><rect x="0.00" y="0.00" width="640.80" height="341.60"/></clipPath>
<clipPath id="c3"><rect x="338.25" y="40.36" width="297.07" height="230.31"/></clipPath>
<clipPath id="c4"><rect x="0.00" y="0.00" width="640.80" height="341.60"/></clipPath>
<clipPath id="c5"><rect x="35.71" y="23.34" width="297.07" height="17.03"/></clipPath>
<clipPath id="c6"><rect x="0.00" y="0.00" width="640.80" height="341.60"/></clipPath>
<clipPath id="c7"><rect x="338.25" y="23.34" width="297.07" height="17.03"/></clipPath>
<clipPath id="c8"><rect x="0.00" y="0.00" width="640.80" height="341.60"/></clipPath>
</defs>
<rect width="100%" height="100%" style="stroke: none;fill: #FFFFFF;"/>
<g clip-path="url(#c0)">
</g><g clip-path="url(#c1)">
<polyline points="35.71,240.03 332.77,240.03" style="stroke-width: 0.53;stroke: #EBEBEB;stroke-linecap: butt;"/>
<polyline points="35.71,185.42 332.77,185.42" style="stroke-width: 0.53;stroke: #EBEBEB;stroke-linecap: butt;"/>
<polyline points="35.71,130.80 332.77,130.80" style="stroke-width: 0.53;stroke: #EBEBEB;stroke-linecap: butt;"/>
<polyline points="35.71,76.18 332.77,76.18" style="stroke-width: 0.53;stroke: #EBEBEB;stroke-linecap: butt;"/>
<polyline points="35.71,267.34 332.77,267.34" style="stroke-width: 1.07;stroke: #EBEBEB;stroke-linecap: butt;"/>
<polyline points="35.71,212.73 332.77,212.73" style="stroke-width: 1.07;stroke: #EBEBEB;stroke-linecap: butt;"/>
<polyline points="35.71,158.11 332.77,158.11" style="stroke-width: 1.07;stroke: #EBEBEB;stroke-linecap: butt;"/>
<polyline points="35.71,103.49 332.77,103.49" style="stroke-width: 1.07;stroke: #EBEBEB;stroke-linecap: butt;"/>
<polyline points="35.71,48.87 332.77,48.87" style="stroke-width: 1.07;stroke: #EBEBEB;stroke-linecap: butt;"/>
<polyline points="50.32,270.67 50.32,40.36" style="stroke-width: 1.07;stroke: #EBEBEB;stroke-linecap: butt;"/>
<polyline points="74.67,270.67 74.67,40.36" style="stroke-width: 1.07;stroke: #EBEBEB;stroke-linecap: butt;"/>
<polyline points="99.02,270.67 99.02,40.36" style="stroke-width: 1.07;stroke: #EBEBEB;stroke-linecap: butt;"/>
<polyline points="123.37,270.67 123.37,40.36" style="stroke-width: 1.07;stroke: #EBEBEB;stroke-linecap: butt;"/>
<polyline points="147.72,270.67 147.72,40.36" style="stroke-width: 1.07;stroke: #EBEBEB;stroke-linecap: butt;"/>
<polyline points="172.07,270.67 172.07,40.36" style="stroke-width: 1.07;stroke: #EBEBEB;stroke-linecap: butt;"/>
<polyline points="196.42,270.67 196.42,40.36" style="stroke-width: 1.07;stroke: #EBEBEB;stroke-linecap: butt;"/>
<polyline points="220.77,270.67 220.77,40.36" style="stroke-width: 1.07;stroke: #EBEBEB;stroke-linecap: butt;"/>
<polyline points="245.12,270.67 245.12,40.36" style="stroke-width: 1.07;stroke: #EBEBEB;stroke-linecap: butt;"/>
<polyline points="269.47,270.67 269.47,40.36" style="stroke-width: 1.07;stroke: #EBEBEB;stroke-linecap: butt;"/>
<polyline points="293.82,270.67 293.82,40.36" style="stroke-width: 1.07;stroke: #EBEBEB;stroke-linecap: butt;"/>
<polyline points="318.16,270.67 318.16,40.36" style="stroke-width: 1.07;stroke: #EBEBEB;stroke-linecap: butt;"/>
<polyline points="50.32,184.55 74.67,123.86 99.02,123.86 123.37,89.18 147.72,104.35 172.07,87.02 196.42,162.87 220.77,119.53 245.12,76.18 269.47,76.18 293.82,67.51 318.16,65.34" style="stroke-width: 1.07;stroke: #F8766D;stroke-linecap: butt;"/>
<polyline points="50.32,243.07 74.67,186.72 99.02,154.21 123.37,119.53 147.72,113.02 172.07,108.69 196.42,139.03 220.77,80.51 245.12,104.35 269.47,82.68 293.82,78.35 318.16,102.19" style="stroke-width: 1.07;stroke: #F8766D; stroke-dasharray: 5.69, 5.69;stroke-linecap: butt;"/>
<polyline points="49.10,167.40 51.54,167.40" style="stroke-width: 1.07;stroke: #F8766D;stroke-linecap: butt;"/>
<polyline points="50.32,167.40 50.32,201.69" style="stroke-width: 1.07;stroke: #F8766D;stroke-linecap: butt;"/>
<polyline points="49.10,201.69 51.54,201.69" style="stroke-width: 1.07;stroke: #F8766D;stroke-linecap: butt;"/>
<polyline points="73.45,107.56 75.89,107.56" style="stroke-width: 1.07;stroke: #F8766D;stroke-linecap: butt;"/>
<polyline points="74.67,107.56 74.67,140.16" style="stroke-width: 1.07;stroke: #F8766D;stroke-linecap: butt;"/>
<polyline points="73.45,140.16 75.89,140.16" style="stroke-width: 1.07;stroke: #F8766D;stroke-linecap: butt;"/>
<polyline points="97.80,107.56 100.24,107.56" style="stroke-width: 1.07;stroke: #F8766D;stroke-linecap: butt;"/>
<polyline points="99.02,107.56 99.02,140.16" style="stroke-width: 1.07;stroke: #F8766D;stroke-linecap: butt;"/>
<polyline points="97.80,140.16 100.24,140.16" style="stroke-width: 1.07;stroke: #F8766D;stroke-linecap: butt;"/>
<polyline points="122.15,73.81 124.58,73.81" style="stroke-width: 1.07;stroke: #F8766D;stroke-linecap: butt;"/>
<polyline points="123.37,73.81 123.37,104.56" style="stroke-width: 1.07;stroke: #F8766D;stroke-linecap: butt;"/>
<polyline points="122.15,104.56 124.58,104.56" style="stroke-width: 1.07;stroke: #F8766D;stroke-linecap: butt;"/>
<polyline points="146.50,88.53 148.93,88.53" style="stroke-width: 1.07;stroke: #F8766D;stroke-linecap: butt;"/>
<polyline points="147.72,88.53 147.72,120.18" style="stroke-width: 1.07;stroke: #F8766D;stroke-linecap: butt;"/>
<polyline points="146.50,120.18 148.93,120.18" style="stroke-width: 1.07;stroke: #F8766D;stroke-linecap: butt;"/>
<polyline points="170.85,71.71 173.28,71.71" style="stroke-width: 1.07;stroke: #F8766D;stroke-linecap: butt;"/>
<polyline points="172.07,71.71 172.07,102.32" style="stroke-width: 1.07;stroke: #F8766D;stroke-linecap: butt;"/>
<polyline points="170.85,102.32 173.28,102.32" style="stroke-width: 1.07;stroke: #F8766D;stroke-linecap: butt;"/>
<polyline points="195.20,145.93 197.63,145.93" style="stroke-width: 1.07;stroke: #F8766D;stroke-linecap: butt;"/>
<polyline points="196.42,145.93 196.42,179.82" style="stroke-width: 1.07;stroke: #F8766D;stroke-linecap: butt;"/>
<polyline points="195.20,179.82 197.63,179.82" style="stroke-width: 1.07;stroke: #F8766D;stroke-linecap: butt;"/>
<polyline points="219.55,103.32 221.98,103.32" style="stroke-width: 1.07;stroke: #F8766D;stroke-linecap: butt;"/>
<polyline points="220.77,103.32 220.77,135.73" style="stroke-width: 1.07;stroke: #F8766D;stroke-linecap: butt;"/>
<polyline points="219.55,135.73 221.98,135.73" style="stroke-width: 1.07;stroke: #F8766D;stroke-linecap: butt;"/>
<polyline points="243.90,61.25 246.33,61.25" style="stroke-width: 1.07;stroke: #F8766D;stroke-linecap: butt;"/>
<polyline points="245.12,61.25 245.12,91.11" style="stroke-width: 1.07;stroke: #F8766D;stroke-linecap: butt;"/>
<polyline points="243.90,91.11 246.33,91.11" style="stroke-width: 1.07;stroke: #F8766D;stroke-linecap: butt;"/>
<polyline points="268.25,61.25 270.68,61.25" style="stroke-width: 1.07;stroke: #F8766D;stroke-linecap: butt;"/>
<polyline points="269.47,61.25 269.47,91.11" style="stroke-width: 1.07;stroke: #F8766D;stroke-linecap: butt;"/>
<polyline points="268.25,91.11 270.68,91.11" style="stroke-width: 1.07;stroke: #F8766D;stroke-linecap: butt;"/>
<polyline points="292.60,52.91 295.03,52.91" style="stroke-width: 1.07;stroke: #F8766D;stroke-linecap: butt;"/>
<polyline points="293.82,52.91 293.82,82.11" style="stroke-width: 1.07;stroke: #F8766D;stroke-linecap: butt;"/>
<polyline points="292.60,82.11 295.03,82.11" style="stroke-width: 1.07;stroke: #F8766D;stroke-linecap: butt;"/>
<polyline points="316.95,50.83 319.38,50.83" style="stroke-width: 1.07;stroke: #F8766D;stroke-linecap: butt;"/>
<polyline points="318.16,50.83 318.16,79.85" style="stroke-width: 1.07;stroke: #F8766D;stroke-linecap: butt;"/>
<polyline points="316.95,79.85 319.38,79.85" style="stroke-width: 1.07;stroke: #F8766D;stroke-linecap: butt;"/>
<polyline points="49.10,225.94 51.54,225.94" style="stroke-width: 1.07;stroke: #F8766D; stroke-dasharray: 5.69, 5.69;stroke-linecap: butt;"/>
<polyline points="50.32,225.94 50.32,260.20" style="stroke-width: 1.07;stroke: #F8766D; stroke-dasharray: 5.69, 5.69;stroke-linecap: butt;"/>
<polyline points="49.10,260.20 51.54,260.20" style="stroke-width: 1.07;stroke: #F8766D; stroke-dasharray: 5.69, 5.69;stroke-linecap: butt;"/>
<polyline points="73.45,169.56 75.89,169.56" style="stroke-width: 1.07;stroke: #F8766D; stroke-dasharray: 5.69, 5.69;stroke-linecap: butt;"/>
<polyline points="74.67,169.56 74.67,203.88" style="stroke-width: 1.07;stroke: #F8766D; stroke-dasharray: 5.69, 5.69;stroke-linecap: butt;"/>
<polyline points="73.45,203.88 75.89,203.88" style="stroke-width: 1.07;stroke: #F8766D; stroke-dasharray: 5.69, 5.69;stroke-linecap: butt;"/>
<polyline points="97.80,137.37 100.24,137.37" style="stroke-width: 1.07;stroke: #F8766D; stroke-dasharray: 5.69, 5.69;stroke-linecap: butt;"/>
<polyline points="99.02,137.37 99.02,171.04" style="stroke-width: 1.07;stroke: #F8766D; stroke-dasharray: 5.69, 5.69;stroke-linecap: butt;"/>
<polyline points="97.80,171.04 100.24,171.04" style="stroke-width: 1.07;stroke: #F8766D; stroke-dasharray: 5.69, 5.69;stroke-linecap: butt;"/>
<polyline points="122.15,103.32 124.58,103.32" style="stroke-width: 1.07;stroke: #F8766D; stroke-dasharray: 5.69, 5.69;stroke-linecap: butt;"/>
<polyline points="123.37,103.32 123.37,135.73" style="stroke-width: 1.07;stroke: #F8766D; stroke-dasharray: 5.69, 5.69;stroke-linecap: butt;"/>
<polyline points="122.15,135.73 124.58,135.73" style="stroke-width: 1.07;stroke: #F8766D; stroke-dasharray: 5.69, 5.69;stroke-linecap: butt;"/>
<polyline points="146.50,96.98 148.93,96.98" style="stroke-width: 1.07;stroke: #F8766D; stroke-dasharray: 5.69, 5.69;stroke-linecap: butt;"/>
<polyline points="147.72,96.98 147.72,129.07" style="stroke-width: 1.07;stroke: #F8766D; stroke-dasharray: 5.69, 5.69;stroke-linecap: butt;"/>
<polyline points="146.50,129.07 148.93,129.07" style="stroke-width: 1.07;stroke: #F8766D; stroke-dasharray: 5.69, 5.69;stroke-linecap: butt;"/>
<polyline points="170.85,92.75 173.28,92.75" style="stroke-width: 1.07;stroke: #F8766D; stroke-dasharray: 5.69, 5.69;stroke-linecap: butt;"/>
<polyline points="172.07,92.75 172.07,124.63" style="stroke-width: 1.07;stroke: #F8766D; stroke-dasharray: 5.69, 5.69;stroke-linecap: butt;"/>
<polyline points="170.85,124.63 173.28,124.63" style="stroke-width: 1.07;stroke: #F8766D; stroke-dasharray: 5.69, 5.69;stroke-linecap: butt;"/>
<polyline points="195.20,122.44 197.63,122.44" style="stroke-width: 1.07;stroke: #F8766D; stroke-dasharray: 5.69, 5.69;stroke-linecap: butt;"/>
<polyline points="196.42,122.44 196.42,155.63" style="stroke-width: 1.07;stroke: #F8766D; stroke-dasharray: 5.69, 5.69;stroke-linecap: butt;"/>
<polyline points="195.20,155.63 197.63,155.63" style="stroke-width: 1.07;stroke: #F8766D; stroke-dasharray: 5.69, 5.69;stroke-linecap: butt;"/>
<polyline points="219.55,65.43 221.98,65.43" style="stroke-width: 1.07;stroke: #F8766D; stroke-dasharray: 5.69, 5.69;stroke-linecap: butt;"/>
<polyline points="220.77,65.43 220.77,95.60" style="stroke-width: 1.07;stroke: #F8766D; stroke-dasharray: 5.69, 5.69;stroke-linecap: butt;"/>
<polyline points="219.55,95.60 221.98,95.60" style="stroke-width: 1.07;stroke: #F8766D; stroke-dasharray: 5.69, 5.69;stroke-linecap: butt;"/>
<polyline points="243.90,88.53 246.33,88.53" style="stroke-width: 1.07;stroke: #F8766D; stroke-dasharray: 5.69, 5.69;stroke-linecap: butt;"/>
<polyline points="245.12,88.53 245.12,120.18" style="stroke-width: 1.07;stroke: #F8766D; stroke-dasharray: 5.69, 5.69;stroke-linecap: butt;"/>
<polyline points="243.90,120.18 246.33,120.18" style="stroke-width: 1.07;stroke: #F8766D; stroke-dasharray: 5.69, 5.69;stroke-linecap: butt;"/>
<polyline points="268.25,67.52 270.68,67.52" style="stroke-width: 1.07;stroke: #F8766D; stroke-dasharray: 5.69, 5.69;stroke-linecap: butt;"/>
<polyline points="269.47,67.52 269.47,97.84" style="stroke-width: 1.07;stroke: #F8766D; stroke-dasharray: 5.69, 5.69;stroke-linecap: butt;"/>
<polyline points="268.25,97.84 270.68,97.84" style="stroke-width: 1.07;stroke: #F8766D; stroke-dasharray: 5.69, 5.69;stroke-linecap: butt;"/>
<polyline points="292.60,63.34 295.03,63.34" style="stroke-width: 1.07;stroke: #F8766D; stroke-dasharray: 5.69, 5.69;stroke-linecap: butt;"/>
<polyline points="293.82,63.34 293.82,93.35" style="stroke-width: 1.07;stroke: #F8766D; stroke-dasharray: 5.69, 5.69;stroke-linecap: butt;"/>
<polyline points="292.60,93.35 295.03,93.35" style="stroke-width: 1.07;stroke: #F8766D; stroke-dasharray: 5.69, 5.69;stroke-linecap: butt;"/>
<polyline points="316.95,86.43 319.38,86.43" style="stroke-width: 1.07;stroke: #F8766D; stroke-dasharray: 5.69, 5.69;stroke-linecap: butt;"/>
<polyline points="318.16,86.43 318.16,117.95" style="stroke-width: 1.07;stroke: #F8766D; stroke-dasharray: 5.69, 5.69;stroke-linecap: butt;"/>
<polyline points="316.95,117.95 319.38,117.95" style="stroke-width: 1.07;stroke: #F8766D; stroke-dasharray: 5.69, 5.69;stroke-linecap: butt;"/>
</g><g clip-path="url(#c3)">
<polyline points="338.25,240.03 635.32,240.03" style="stroke-width: 0.53;stroke: #EBEBEB;stroke-linecap: butt;"/>
<polyline points="338.25,185.42 635.32,185.42" style="stroke-width: 0.53;stroke: #EBEBEB;stroke-linecap: butt;"/>
<polyline points="338.25,130.80 635.32,130.80" style="stroke-width: 0.53;stroke: #EBEBEB;stroke-linecap: butt;"/>
<polyline points="338.25,76.18 635.32,76.18" style="stroke-width: 0.53;stroke: #EBEBEB;stroke-linecap: butt;"/>
<polyline points="338.25,267.34 635.32,267.34" style="stroke-width: 1.07;stroke: #EBEBEB;stroke-linecap: butt;"/>
<polyline points="338.25,212.73 635.32,212.73" style="stroke-width: 1.07;stroke: #EBEBEB;stroke-linecap: butt;"/>
<polyline points="338.25,158.11 635.32,158.11" style="stroke-width: 1.07;stroke: #EBEBEB;stroke-linecap: butt;"/>
<polyline points="338.25,103.49 635.32,103.49" style="stroke-width: 1.07;stroke: #EBEBEB;stroke-linecap: butt;"/>
<polyline points="338.25,48.87 635.32,48.87" style="stroke-width: 1.07;stroke: #EBEBEB;stroke-linecap: butt;"/>
<polyline points="352.86,270.67 352.86,40.36" style="stroke-width: 1.07;stroke: #EBEBEB;stroke-linecap: butt;"/>
<polyline points="377.21,270.67 377.21,40.36" style="stroke-width: 1.07;stroke: #EBEBEB;stroke-linecap: butt;"/>
<polyline points="401.56,270.67 401.56,40.36" style="stroke-width: 1.07;stroke: #EBEBEB;stroke-linecap: butt;"/>
<polyline points="425.91,270.67 425.91,40.36" style="stroke-width: 1.07;stroke: #EBEBEB;stroke-linecap: butt;"/>
<polyline points="450.26,270.67 450.26,40.36" style="stroke-width: 1.07;stroke: #EBEBEB;stroke-linecap: butt;"/>
<polyline points="474.61,270.67 474.61,40.36" style="stroke-width: 1.07;stroke: #EBEBEB;stroke-linecap: butt;"/>
<polyline points="498.96,270.67 498.96,40.36" style="stroke-width: 1.07;stroke: #EBEBEB;stroke-linecap: butt;"/>
<polyline points="523.31,270.67 523.31,40.36" style="stroke-width: 1.07;stroke: #EBEBEB;stroke-linecap: butt;"/>
<polyline points="547.66,270.67 547.66,40.36" style="stroke-width: 1.07;stroke: #EBEBEB;stroke-linecap: butt;"/>
<polyline points="572.01,270.67 572.01,40.36" style="stroke-width: 1.07;stroke: #EBEBEB;stroke-linecap: butt;"/>
<polyline points="596.36,270.67 596.36,40.36" style="stroke-width: 1.07;stroke: #EBEBEB;stroke-linecap: butt;"/>
<polyline points="620.71,270.67 620.71,40.36" style="stroke-width: 1.07;stroke: #EBEBEB;stroke-linecap: butt;"/>
<polyline points="352.86,188.88 377.21,147.70 401.56,147.70 425.91,143.37 450.26,139.03 474.61,102.19 498.96,173.71 523.31,119.53 547.66,84.85 572.01,104.35 596.36,84.85 620.71,65.34" style="stroke-width: 1.07;stroke: #00BFC4;stroke-linecap: butt;"/>
<polyline points="352.86,234.40 377.21,145.54 401.56,130.36 425.91,134.70 450.26,128.20 474.61,108.69 498.96,113.02 523.31,100.02 547.66,95.69 572.01,91.35 596.36,76.18 620.71,69.68" style="stroke-width: 1.07;stroke: #00BFC4; stroke-dasharray: 5.69, 5.69;stroke-linecap: butt;"/>
<polyline points="351.65,171.71 354.08,171.71" style="stroke-width: 1.07;stroke: #00BFC4;stroke-linecap: butt;"/>
<polyline points="352.86,171.71 352.86,206.06" style="stroke-width: 1.07;stroke: #00BFC4;stroke-linecap: butt;"/>
<polyline points="351.65,206.06 354.08,206.06" style="stroke-width: 1.07;stroke: #00BFC4;stroke-linecap: butt;"/>
<polyline points="376.00,130.96 378.43,130.96" style="stroke-width: 1.07;stroke: #00BFC4;stroke-linecap: butt;"/>
<polyline points="377.21,130.96 377.21,164.44" style="stroke-width: 1.07;stroke: #00BFC4;stroke-linecap: butt;"/>
<polyline points="376.00,164.44 378.43,164.44" style="stroke-width: 1.07;stroke: #00BFC4;stroke-linecap: butt;"/>
<polyline points="400.35,130.96 402.78,130.96" style="stroke-width: 1.07;stroke: #00BFC4;stroke-linecap: butt;"/>
<polyline points="401.56,130.96 401.56,164.44" style="stroke-width: 1.07;stroke: #00BFC4;stroke-linecap: butt;"/>
<polyline points="400.35,164.44 402.78,164.44" style="stroke-width: 1.07;stroke: #00BFC4;stroke-linecap: butt;"/>
<polyline points="424.70,126.70 427.13,126.70" style="stroke-width: 1.07;stroke: #00BFC4;stroke-linecap: butt;"/>
<polyline points="425.91,126.70 425.91,160.04" style="stroke-width: 1.07;stroke: #00BFC4;stroke-linecap: butt;"/>
<polyline points="424.70,160.04 427.13,160.04" style="stroke-width: 1.07;stroke: #00BFC4;stroke-linecap: butt;"/>
<polyline points="449.05,122.44 451.48,122.44" style="stroke-width: 1.07;stroke: #00BFC4;stroke-linecap: butt;"/>
<polyline points="450.26,122.44 450.26,155.63" style="stroke-width: 1.07;stroke: #00BFC4;stroke-linecap: butt;"/>
<polyline points="449.05,155.63 451.48,155.63" style="stroke-width: 1.07;stroke: #00BFC4;stroke-linecap: butt;"/>
<polyline points="473.40,86.43 475.83,86.43" style="stroke-width: 1.07;stroke: #00BFC4;stroke-linecap: butt;"/>
<polyline points="474.61,86.43 474.61,117.95" style="stroke-width: 1.07;stroke: #00BFC4;stroke-linecap: butt;"/>
<polyline points="473.40,117.95 475.83,117.95" style="stroke-width: 1.07;stroke: #00BFC4;stroke-linecap: butt;"/>
<polyline points="497.74,156.65 500.18,156.65" style="stroke-width: 1.07;stroke: #00BFC4;stroke-linecap: butt;"/>
<polyline points="498.96,156.65 498.96,190.77" style="stroke-width: 1.07;stroke: #00BFC4;stroke-linecap: butt;"/>
<polyline points="497.74,190.77 500.18,190.77" style="stroke-width: 1.07;stroke: #00BFC4;stroke-linecap: butt;"/>
<polyline points="522.09,103.32 524.53,103.32" style="stroke-width: 1.07;stroke: #00BFC4;stroke-linecap: butt;"/>
<polyline points="523.31,103.32 523.31,135.73" style="stroke-width: 1.07;stroke: #00BFC4;stroke-linecap: butt;"/>
<polyline points="522.09,135.73 524.53,135.73" style="stroke-width: 1.07;stroke: #00BFC4;stroke-linecap: butt;"/>
<polyline points="546.44,69.62 548.88,69.62" style="stroke-width: 1.07;stroke: #00BFC4;stroke-linecap: butt;"/>
<polyline points="547.66,69.62 547.66,100.08" style="stroke-width: 1.07;stroke: #00BFC4;stroke-linecap: butt;"/>
<polyline points="546.44,100.08 548.88,100.08" style="stroke-width: 1.07;stroke: #00BFC4;stroke-linecap: butt;"/>
<polyline points="570.79,88.53 573.23,88.53" style="stroke-width: 1.07;stroke: #00BFC4;stroke-linecap: butt;"/>
<polyline points="572.01,88.53 572.01,120.18" style="stroke-width: 1.07;stroke: #00BFC4;stroke-linecap: butt;"/>
<polyline points="570.79,120.18 573.23,120.18" style="stroke-width: 1.07;stroke: #00BFC4;stroke-linecap: butt;"/>
<polyline points="595.14,69.62 597.58,69.62" style="stroke-width: 1.07;stroke: #00BFC4;stroke-linecap: butt;"/>
<polyline points="596.36,69.62 596.36,100.08" style="stroke-width: 1.07;stroke: #00BFC4;stroke-linecap: butt;"/>
<polyline points="595.14,100.08 597.58,100.08" style="stroke-width: 1.07;stroke: #00BFC4;stroke-linecap: butt;"/>
<polyline points="619.49,50.83 621.93,50.83" style="stroke-width: 1.07;stroke: #00BFC4;stroke-linecap: butt;"/>
<polyline points="620.71,50.83 620.71,79.85" style="stroke-width: 1.07;stroke: #00BFC4;stroke-linecap: butt;"/>
<polyline points="619.49,79.85 621.93,79.85" style="stroke-width: 1.07;stroke: #00BFC4;stroke-linecap: butt;"/>
<polyline points="351.65,217.22 354.08,217.22" style="stroke-width: 1.07;stroke: #00BFC4; stroke-dasharray: 5.69, 5.69;stroke-linecap: butt;"/>
<polyline points="352.86,217.22 352.86,251.58" style="stroke-width: 1.07;stroke: #00BFC4; stroke-dasharray: 5.69, 5.69;stroke-linecap: butt;"/>
<polyline points="351.65,251.58 354.08,251.58" style="stroke-width: 1.07;stroke: #00BFC4; stroke-dasharray: 5.69, 5.69;stroke-linecap: butt;"/>
<polyline points="376.00,128.83 378.43,128.83" style="stroke-width: 1.07;stroke: #00BFC4; stroke-dasharray: 5.69, 5.69;stroke-linecap: butt;"/>
<polyline points="377.21,128.83 377.21,162.24" style="stroke-width: 1.07;stroke: #00BFC4; stroke-dasharray: 5.69, 5.69;stroke-linecap: butt;"/>
<polyline points="376.00,162.24 378.43,162.24" style="stroke-width: 1.07;stroke: #00BFC4; stroke-dasharray: 5.69, 5.69;stroke-linecap: butt;"/>
<polyline points="400.35,113.93 402.78,113.93" style="stroke-width: 1.07;stroke: #00BFC4; stroke-dasharray: 5.69, 5.69;stroke-linecap: butt;"/>
<polyline points="401.56,113.93 401.56,146.80" style="stroke-width: 1.07;stroke: #00BFC4; stroke-dasharray: 5.69, 5.69;stroke-linecap: butt;"/>
<polyline points="400.35,146.80 402.78,146.80" style="stroke-width: 1.07;stroke: #00BFC4; stroke-dasharray: 5.69, 5.69;stroke-linecap: butt;"/>
<polyline points="424.70,118.18 427.13,118.18" style="stroke-width: 1.07;stroke: #00BFC4; stroke-dasharray: 5.69, 5.69;stroke-linecap: butt;"/>
<polyline points="425.91,118.18 425.91,151.22" style="stroke-width: 1.07;stroke: #00BFC4; stroke-dasharray: 5.69, 5.69;stroke-linecap: butt;"/>
<polyline points="424.70,151.22 427.13,151.22" style="stroke-width: 1.07;stroke: #00BFC4; stroke-dasharray: 5.69, 5.69;stroke-linecap: butt;"/>
<polyline points="449.05,111.81 451.48,111.81" style="stroke-width: 1.07;stroke: #00BFC4; stroke-dasharray: 5.69, 5.69;stroke-linecap: butt;"/>
<polyline points="450.26,111.81 450.26,144.59" style="stroke-width: 1.07;stroke: #00BFC4; stroke-dasharray: 5.69, 5.69;stroke-linecap: butt;"/>
<polyline points="449.05,144.59 451.48,144.59" style="stroke-width: 1.07;stroke: #00BFC4; stroke-dasharray: 5.69, 5.69;stroke-linecap: butt;"/>
<polyline points="473.40,92.75 475.83,92.75" style="stroke-width: 1.07;stroke: #00BFC4; stroke-dasharray: 5.69, 5.69;stroke-linecap: butt;"/>
<polyline points="474.61,92.75 474.61,124.63" style="stroke-width: 1.07;stroke: #00BFC4; stroke-dasharray: 5.69, 5.69;stroke-linecap: butt;"/>
<polyline points="473.40,124.63 475.83,124.63" style="stroke-width: 1.07;stroke: #00BFC4; stroke-dasharray: 5.69, 5.69;stroke-linecap: butt;"/>
<polyline points="497.74,96.98 500.18,96.98" style="stroke-width: 1.07;stroke: #00BFC4; stroke-dasharray: 5.69, 5.69;stroke-linecap: butt;"/>
<polyline points="498.96,96.98 498.96,129.07" style="stroke-width: 1.07;stroke: #00BFC4; stroke-dasharray: 5.69, 5.69;stroke-linecap: butt;"/>
<polyline points="497.74,129.07 500.18,129.07" style="stroke-width: 1.07;stroke: #00BFC4; stroke-dasharray: 5.69, 5.69;stroke-linecap: butt;"/>
<polyline points="522.09,84.32 524.53,84.32" style="stroke-width: 1.07;stroke: #00BFC4; stroke-dasharray: 5.69, 5.69;stroke-linecap: butt;"/>
<polyline points="523.31,84.32 523.31,115.72" style="stroke-width: 1.07;stroke: #00BFC4; stroke-dasharray: 5.69, 5.69;stroke-linecap: butt;"/>
<polyline points="522.09,115.72 524.53,115.72" style="stroke-width: 1.07;stroke: #00BFC4; stroke-dasharray: 5.69, 5.69;stroke-linecap: butt;"/>
<polyline points="546.44,80.11 548.88,80.11" style="stroke-width: 1.07;stroke: #00BFC4; stroke-dasharray: 5.69, 5.69;stroke-linecap: butt;"/>
<polyline points="547.66,80.11 547.66,111.26" style="stroke-width: 1.07;stroke: #00BFC4; stroke-dasharray: 5.69, 5.69;stroke-linecap: butt;"/>
<polyline points="546.44,111.26 548.88,111.26" style="stroke-width: 1.07;stroke: #00BFC4; stroke-dasharray: 5.69, 5.69;stroke-linecap: butt;"/>
<polyline points="570.79,75.91 573.23,75.91" style="stroke-width: 1.07;stroke: #00BFC4; stroke-dasharray: 5.69, 5.69;stroke-linecap: butt;"/>
<polyline points="572.01,75.91 572.01,106.79" style="stroke-width: 1.07;stroke: #00BFC4; stroke-dasharray: 5.69, 5.69;stroke-linecap: butt;"/>
<polyline points="570.79,106.79 573.23,106.79" style="stroke-width: 1.07;stroke: #00BFC4; stroke-dasharray: 5.69, 5.69;stroke-linecap: butt;"/>
<polyline points="595.14,61.25 597.58,61.25" style="stroke-width: 1.07;stroke: #00BFC4; stroke-dasharray: 5.69, 5.69;stroke-linecap: butt;"/>
<polyline points="596.36,61.25 596.36,91.11" style="stroke-width: 1.07;stroke: #00BFC4; stroke-dasharray: 5.69, 5.69;stroke-linecap: butt;"/>
<polyline points="595.14,91.11 597.58,91.11" style="stroke-width: 1.07;stroke: #00BFC4; stroke-dasharray: 5.69, 5.69;stroke-linecap: butt;"/>
<polyline points="619.49,54.99 621.93,54.99" style="stroke-width: 1.07;stroke: #00BFC4; stroke-dasharray: 5.69, 5.69;stroke-linecap: butt;"/>
<polyline points="620.71,54.99 620.71,84.36" style="stroke-width: 1.07;stroke: #00BFC4; stroke-dasharray: 5.69, 5.69;stroke-linecap: butt;"/>
<polyline points="619.49,84.36 621.93,84.36" style="stroke-width: 1.07;stroke: #00BFC4; stroke-dasharray: 5.69, 5.69;stroke-linecap: butt;"/>
</g><g clip-path="url(#c5)">
<g><text x="184.24" y="35.00" text-anchor="middle" style="font-family: Arial;font-size: 8.80px;fill: #1A1A1A;" textLength="37.18px" lengthAdjust="spacingAndGlyphs">nonsocial</text></g>
</g><g clip-path="url(#c7)">
<g><text x="486.79" y="35.00" text-anchor="middle" style="font-family: Arial;font-size: 8.80px;fill: #1A1A1A;" textLength="22.49px" lengthAdjust="spacingAndGlyphs">social</text></g>
</g><g clip-path="url(#c8)">
<g><text x="50.32" y="281.91" text-anchor="middle" style="font-family: Arial;font-size: 8.80px;fill: #4D4D4D;" textLength="4.90px" lengthAdjust="spacingAndGlyphs">1</text></g>
<g><text x="74.67" y="281.91" text-anchor="middle" style="font-family: Arial;font-size: 8.80px;fill: #4D4D4D;" textLength="4.90px" lengthAdjust="spacingAndGlyphs">2</text></g>
<g><text x="99.02" y="281.91" text-anchor="middle" style="font-family: Arial;font-size: 8.80px;fill: #4D4D4D;" textLength="4.90px" lengthAdjust="spacingAndGlyphs">3</text></g>
<g><text x="123.37" y="281.91" text-anchor="middle" style="font-family: Arial;font-size: 8.80px;fill: #4D4D4D;" textLength="4.90px" lengthAdjust="spacingAndGlyphs">4</text></g>
<g><text x="147.72" y="281.91" text-anchor="middle" style="font-family: Arial;font-size: 8.80px;fill: #4D4D4D;" textLength="4.90px" lengthAdjust="spacingAndGlyphs">5</text></g>
<g><text x="172.07" y="281.91" text-anchor="middle" style="font-family: Arial;font-size: 8.80px;fill: #4D4D4D;" textLength="4.90px" lengthAdjust="spacingAndGlyphs">6</text></g>
<g><text x="196.42" y="281.91" text-anchor="middle" style="font-family: Arial;font-size: 8.80px;fill: #4D4D4D;" textLength="4.90px" lengthAdjust="spacingAndGlyphs">7</text></g>
<g><text x="220.77" y="281.91" text-anchor="middle" style="font-family: Arial;font-size: 8.80px;fill: #4D4D4D;" textLength="4.90px" lengthAdjust="spacingAndGlyphs">8</text></g>
<g><text x="245.12" y="281.91" text-anchor="middle" style="font-family: Arial;font-size: 8.80px;fill: #4D4D4D;" textLength="4.90px" lengthAdjust="spacingAndGlyphs">9</text></g>
<g><text x="269.47" y="281.91" text-anchor="middle" style="font-family: Arial;font-size: 8.80px;fill: #4D4D4D;" textLength="9.79px" lengthAdjust="spacingAndGlyphs">10</text></g>
<g><text x="293.82" y="281.91" text-anchor="middle" style="font-family: Arial;font-size: 8.80px;fill: #4D4D4D;" textLength="9.79px" lengthAdjust="spacingAndGlyphs">11</text></g>
<g><text x="318.16" y="281.91" text-anchor="middle" style="font-family: Arial;font-size: 8.80px;fill: #4D4D4D;" textLength="9.79px" lengthAdjust="spacingAndGlyphs">12</text></g>
<g><text x="352.86" y="281.91" text-anchor="middle" style="font-family: Arial;font-size: 8.80px;fill: #4D4D4D;" textLength="4.90px" lengthAdjust="spacingAndGlyphs">1</text></g>
<g><text x="377.21" y="281.91" text-anchor="middle" style="font-family: Arial;font-size: 8.80px;fill: #4D4D4D;" textLength="4.90px" lengthAdjust="spacingAndGlyphs">2</text></g>
<g><text x="401.56" y="281.91" text-anchor="middle" style="font-family: Arial;font-size: 8.80px;fill: #4D4D4D;" textLength="4.90px" lengthAdjust="spacingAndGlyphs">3</text></g>
<g><text x="425.91" y="281.91" text-anchor="middle" style="font-family: Arial;font-size: 8.80px;fill: #4D4D4D;" textLength="4.90px" lengthAdjust="spacingAndGlyphs">4</text></g>
<g><text x="450.26" y="281.91" text-anchor="middle" style="font-family: Arial;font-size: 8.80px;fill: #4D4D4D;" textLength="4.90px" lengthAdjust="spacingAndGlyphs">5</text></g>
<g><text x="474.61" y="281.91" text-anchor="middle" style="font-family: Arial;font-size: 8.80px;fill: #4D4D4D;" textLength="4.90px" lengthAdjust="spacingAndGlyphs">6</text></g>
<g><text x="498.96" y="281.91" text-anchor="middle" style="font-family: Arial;font-size: 8.80px;fill: #4D4D4D;" textLength="4.90px" lengthAdjust="spacingAndGlyphs">7</text></g>
<g><text x="523.31" y="281.91" text-anchor="middle" style="font-family: Arial;font-size: 8.80px;fill: #4D4D4D;" textLength="4.90px" lengthAdjust="spacingAndGlyphs">8</text></g>
<g><text x="547.66" y="281.91" text-anchor="middle" style="font-family: Arial;font-size: 8.80px;fill: #4D4D4D;" textLength="4.90px" lengthAdjust="spacingAndGlyphs">9</text></g>
<g><text x="572.01" y="281.91" text-anchor="middle" style="font-family: Arial;font-size: 8.80px;fill: #4D4D4D;" textLength="9.79px" lengthAdjust="spacingAndGlyphs">10</text></g>
<g><text x="596.36" y="281.91" text-anchor="middle" style="font-family: Arial;font-size: 8.80px;fill: #4D4D4D;" textLength="9.79px" lengthAdjust="spacingAndGlyphs">11</text></g>
<g><text x="620.71" y="281.91" text-anchor="middle" style="font-family: Arial;font-size: 8.80px;fill: #4D4D4D;" textLength="9.79px" lengthAdjust="spacingAndGlyphs">12</text></g>
<g><text x="30.78" y="270.50" text-anchor="end" style="font-family: Arial;font-size: 8.80px;fill: #4D4D4D;" textLength="12.23px" lengthAdjust="spacingAndGlyphs">0.4</text></g>
<g><text x="30.78" y="215.88" text-anchor="end" style="font-family: Arial;font-size: 8.80px;fill: #4D4D4D;" textLength="12.23px" lengthAdjust="spacingAndGlyphs">0.5</text></g>
<g><text x="30.78" y="161.26" text-anchor="end" style="font-family: Arial;font-size: 8.80px;fill: #4D4D4D;" textLength="12.23px" lengthAdjust="spacingAndGlyphs">0.6</text></g>
<g><text x="30.78" y="106.64" text-anchor="end" style="font-family: Arial;font-size: 8.80px;fill: #4D4D4D;" textLength="12.23px" lengthAdjust="spacingAndGlyphs">0.7</text></g>
<g><text x="30.78" y="52.02" text-anchor="end" style="font-family: Arial;font-size: 8.80px;fill: #4D4D4D;" textLength="12.23px" lengthAdjust="spacingAndGlyphs">0.8</text></g>
<g><text x="335.51" y="294.49" text-anchor="middle" style="font-family: Arial;font-size: 11.00px;" textLength="63.57px" lengthAdjust="spacingAndGlyphs">Trial Number</text></g>
<g><text transform="translate(13.37,155.51) rotate(-90.00)" text-anchor="middle" style="font-family: Arial;font-size: 11.00px;" textLength="111.88px" lengthAdjust="spacingAndGlyphs">Mean Correct Answers</text></g>
<g><text x="162.67" y="325.95" style="font-family: Arial;font-size: 11.00px;" textLength="51.36px" lengthAdjust="spacingAndGlyphs">BlockType</text></g>
<line x1="221.23" y1="322.00" x2="235.06" y2="322.00" style="stroke-width: 1.07;stroke: #F8766D;stroke-linecap: butt;"/>
<line x1="221.23" y1="322.00" x2="235.06" y2="322.00" style="stroke-width: 1.07;stroke: #F8766D;stroke-linecap: butt;"/>
<line x1="221.23" y1="322.00" x2="235.06" y2="322.00" style="stroke-width: 1.07;stroke: #F8766D;stroke-linecap: butt;"/>
<line x1="221.23" y1="322.00" x2="235.06" y2="322.00" style="stroke-width: 1.07;stroke: #F8766D;stroke-linecap: butt;"/>
<line x1="286.65" y1="322.00" x2="300.48" y2="322.00" style="stroke-width: 1.07;stroke: #00BFC4;stroke-linecap: butt;"/>
<line x1="286.65" y1="322.00" x2="300.48" y2="322.00" style="stroke-width: 1.07;stroke: #00BFC4;stroke-linecap: butt;"/>
<line x1="286.65" y1="322.00" x2="300.48" y2="322.00" style="stroke-width: 1.07;stroke: #00BFC4;stroke-linecap: butt;"/>
<line x1="286.65" y1="322.00" x2="300.48" y2="322.00" style="stroke-width: 1.07;stroke: #00BFC4;stroke-linecap: butt;"/>
<g><text x="242.27" y="325.15" style="font-family: Arial;font-size: 8.80px;" textLength="37.18px" lengthAdjust="spacingAndGlyphs">nonsocial</text></g>
<g><text x="307.69" y="325.15" style="font-family: Arial;font-size: 8.80px;" textLength="22.49px" lengthAdjust="spacingAndGlyphs">social</text></g>
<g><text x="352.10" y="325.95" style="font-family: Arial;font-size: 11.00px;" textLength="24.46px" lengthAdjust="spacingAndGlyphs">Type</text></g>
<line x1="383.76" y1="322.00" x2="397.59" y2="322.00" style="stroke-width: 1.07;stroke-linecap: butt;"/>
<line x1="383.76" y1="322.00" x2="397.59" y2="322.00" style="stroke-width: 1.07;stroke-linecap: butt;"/>
<line x1="450.15" y1="322.00" x2="463.98" y2="322.00" style="stroke-width: 1.07; stroke-dasharray: 5.69, 5.69;stroke-linecap: butt;"/>
<line x1="450.15" y1="322.00" x2="463.98" y2="322.00" style="stroke-width: 1.07; stroke-dasharray: 5.69, 5.69;stroke-linecap: butt;"/>
<g><text x="404.79" y="325.15" style="font-family: Arial;font-size: 8.80px;" textLength="38.15px" lengthAdjust="spacingAndGlyphs">Observed</text></g>
<g><text x="471.19" y="325.15" style="font-family: Arial;font-size: 8.80px;" textLength="37.17px" lengthAdjust="spacingAndGlyphs">Predicted</text></g>
<g><text x="35.71" y="14.94" style="font-family: Arial;font-size: 13.20px;" textLength="162.72px" lengthAdjust="spacingAndGlyphs">Correct Answers over Trials</text></g>
</g>
</svg>