<svg xmlns="http://www.w3.org/2000/svg" xmlns:xlink="http://www.w3.org/1999/xlink" class="httpgd" width="801.00" height="427.00" viewBox="0 0 640.80 341.60">
<defs>
  <style type='text/css'><![CDATA[
    .httpgd line, .httpgd polyline, .httpgd polygon, .httpgd path, .httpgd rect, .httpgd circle {
      fill: none;
      stroke: #000000;
      stroke-linecap: round;
      stroke-linejoin: round;
      stroke-miterlimit: 10.00;
    }
  ]]></style>
<clipPath id="c0"><rect x="0.00" y="0.00" width="640.80" height="341.60"/></clipPath>
<clipPath id="c1"><rect x="35.71" y="23.34" width="517.75" height="286.53"/></clipPath>
<clipPath id="c2"><rect x="0.00" y="0.00" width="640.80" height="341.60"/></clipPath>
</defs>
<rect width="100%" height="100%" style="stroke: none;fill: #FFFFFF;"/>
<g clip-path="url(#c0)">
</g><g clip-path="url(#c1)">
<polyline points="35.71,236.06 553.46,236.06" style="stroke-width: 0.53;stroke: #EBEBEB;stroke-linecap: butt;"/>
<polyline points="35.71,152.71 553.46,152.71" style="stroke-width: 0.53;stroke: #EBEBEB;stroke-linecap: butt;"/>
<polyline points="35.71,69.35 553.46,69.35" style="stroke-width: 0.53;stroke: #EBEBEB;stroke-linecap: butt;"/>
<polyline points="35.71,277.74 553.46,277.74" style="stroke-width: 1.07;stroke: #EBEBEB;stroke-linecap: butt;"/>
<polyline points="35.71,194.39 553.46,194.39" style="stroke-width: 1.07;stroke: #EBEBEB;stroke-linecap: butt;"/>
<polyline points="35.71,111.03 553.46,111.03" style="stroke-width: 1.07;stroke: #EBEBEB;stroke-linecap: butt;"/>
<polyline points="35.71,27.68 553.46,27.68" style="stroke-width: 1.07;stroke: #EBEBEB;stroke-linecap: butt;"/>
<polyline points="176.91,309.87 176.91,23.34" style="stroke-width: 1.07;stroke: #EBEBEB;stroke-linecap: butt;"/>
<polyline points="412.26,309.87 412.26,23.34" style="stroke-width: 1.07;stroke: #EBEBEB;stroke-linecap: butt;"/>
<polygon points="155.28,279.48 154.88,279.02 154.49,278.56 154.10,278.10 153.70,277.64 153.31,277.18 152.91,276.72 152.52,276.27 152.12,275.81 151.72,275.35 151.33,274.89 150.93,274.43 150.53,273.97 150.14,273.51 149.75,273.05 149.35,272.59 148.96,272.14 148.57,271.68 148.19,271.22 147.80,270.76 147.42,270.30 147.03,269.84 146.65,269.38 146.28,268.92 145.90,268.47 145.53,268.01 145.17,267.55 144.80,267.09 144.44,266.63 144.09,266.17 143.73,265.71 143.39,265.25 143.04,264.80 142.70,264.34 142.37,263.88 142.04,263.42 141.71,262.96 141.39,262.50 141.08,262.04 140.76,261.58 140.46,261.13 140.16,260.67 139.87,260.21 139.58,259.75 139.30,259.29 139.02,258.83 138.75,258.37 138.49,257.91 138.23,257.46 137.98,257.00 137.73,256.54 137.49,256.08 137.25,255.62 137.02,255.16 136.80,254.70 136.58,254.24 136.38,253.79 136.17,253.33 135.97,252.87 135.78,252.41 135.59,251.95 135.41,251.49 135.23,251.03 135.06,250.57 134.90,250.11 134.74,249.66 134.58,249.20 134.43,248.74 134.29,248.28 134.15,247.82 134.01,247.36 133.88,246.90 133.76,246.44 133.63,245.99 133.51,245.53 133.40,245.07 133.28,244.61 133.18,244.15 133.07,243.69 132.97,243.23 132.86,242.77 132.77,242.32 132.67,241.86 132.57,241.40 132.48,240.94 132.39,240.48 132.30,240.02 132.20,239.56 132.11,239.10 132.02,238.65 131.93,238.19 131.84,237.73 131.75,237.27 131.66,236.81 131.56,236.35 131.47,235.89 131.37,235.43 131.27,234.98 131.17,234.52 131.06,234.06 130.96,233.60 130.84,233.14 130.73,232.68 130.61,232.22 130.49,231.76 130.36,231.31 130.23,230.85 130.10,230.39 129.96,229.93 129.81,229.47 129.66,229.01 129.50,228.55 129.34,228.09 129.17,227.63 129.00,227.18 128.81,226.72 128.63,226.26 128.43,225.80 128.23,225.34 128.02,224.88 127.80,224.42 127.58,223.96 127.35,223.51 127.11,223.05 126.86,222.59 126.61,222.13 126.35,221.67 126.07,221.21 125.80,220.75 125.51,220.29 125.21,219.84 124.91,219.38 124.60,218.92 124.27,218.46 123.94,218.00 123.61,217.54 123.26,217.08 122.91,216.62 122.54,216.17 122.17,215.71 121.79,215.25 121.40,214.79 121.01,214.33 120.60,213.87 120.19,213.41 119.77,212.95 119.34,212.50 118.90,212.04 118.46,211.58 118.01,211.12 117.55,210.66 117.08,210.20 116.61,209.74 116.13,209.28 115.64,208.83 115.14,208.37 114.64,207.91 114.13,207.45 113.62,206.99 113.10,206.53 112.57,206.07 112.04,205.61 111.51,205.15 110.96,204.70 110.42,204.24 109.86,203.78 109.31,203.32 108.74,202.86 108.18,202.40 107.61,201.94 107.03,201.48 106.46,201.03 105.88,200.57 105.30,200.11 104.71,199.65 104.12,199.19 103.53,198.73 102.94,198.27 102.34,197.81 101.75,197.36 101.15,196.90 100.55,196.44 99.96,195.98 99.36,195.52 98.76,195.06 98.16,194.60 97.56,194.14 96.96,193.69 96.37,193.23 95.77,192.77 95.18,192.31 94.59,191.85 94.00,191.39 93.41,190.93 92.82,190.47 92.24,190.02 91.66,189.56 91.09,189.10 90.52,188.64 89.95,188.18 89.39,187.72 88.83,187.26 88.27,186.80 87.72,186.35 87.18,185.89 86.64,185.43 86.11,184.97 85.58,184.51 85.06,184.05 84.54,183.59 84.03,183.13 83.53,182.68 83.04,182.22 82.55,181.76 82.07,181.30 81.60,180.84 81.14,180.38 80.68,179.92 80.24,179.46 79.80,179.00 79.37,178.55 78.95,178.09 78.54,177.63 78.14,177.17 77.75,176.71 77.37,176.25 76.99,175.79 76.64,175.33 76.28,174.88 75.94,174.42 75.61,173.96 75.29,173.50 74.98,173.04 74.68,172.58 74.40,172.12 74.12,171.66 73.86,171.21 73.60,170.75 73.36,170.29 73.13,169.83 72.91,169.37 72.70,168.91 72.51,168.45 72.33,167.99 72.15,167.54 71.99,167.08 71.84,166.62 71.71,166.16 71.59,165.70 71.47,165.24 71.38,164.78 71.28,164.32 71.21,163.87 71.15,163.41 71.10,162.95 71.06,162.49 71.03,162.03 71.02,161.57 71.01,161.11 71.02,160.65 71.04,160.20 71.07,159.74 71.12,159.28 71.17,158.82 71.24,158.36 71.32,157.90 71.41,157.44 71.50,156.98 71.62,156.52 71.74,156.07 71.88,155.61 72.02,155.15 72.17,154.69 72.34,154.23 72.51,153.77 72.70,153.31 72.89,152.85 73.10,152.40 73.31,151.94 73.54,151.48 73.77,151.02 74.02,150.56 74.27,150.10 74.52,149.64 74.80,149.18 75.07,148.73 75.36,148.27 75.65,147.81 75.95,147.35 76.25,146.89 76.56,146.43 76.89,145.97 77.21,145.51 77.54,145.06 77.88,144.60 78.23,144.14 78.58,143.68 78.93,143.22 79.29,142.76 79.65,142.30 80.02,141.84 80.39,141.39 80.77,140.93 81.15,140.47 81.53,140.01 81.92,139.55 82.31,139.09 82.70,138.63 83.09,138.17 83.48,137.72 83.88,137.26 84.27,136.80 84.67,136.34 85.07,135.88 85.47,135.42 85.87,134.96 86.26,134.50 86.66,134.04 87.06,133.59 87.45,133.13 87.85,132.67 88.24,132.21 88.63,131.75 89.02,131.29 89.40,130.83 89.79,130.37 90.17,129.92 90.54,129.46 90.92,129.00 91.29,128.54 91.65,128.08 92.01,127.62 92.37,127.16 92.72,126.70 93.07,126.25 93.41,125.79 93.75,125.33 94.08,124.87 94.41,124.41 94.73,123.95 95.05,123.49 95.36,123.03 95.66,122.58 95.96,122.12 96.25,121.66 96.53,121.20 96.81,120.74 97.08,120.28 97.34,119.82 97.60,119.36 97.85,118.91 98.10,118.45 98.33,117.99 98.56,117.53 98.79,117.07 99.00,116.61 99.21,116.15 99.41,115.69 99.61,115.24 99.80,114.78 99.98,114.32 100.15,113.86 100.32,113.40 100.48,112.94 100.64,112.48 100.79,112.02 100.93,111.56 101.06,111.11 101.19,110.65 101.31,110.19 101.43,109.73 101.54,109.27 101.65,108.81 101.75,108.35 101.85,107.89 101.94,107.44 102.02,106.98 102.11,106.52 102.18,106.06 102.26,105.60 102.33,105.14 102.39,104.68 102.46,104.22 102.52,103.77 102.57,103.31 102.63,102.85 102.68,102.39 102.73,101.93 102.78,101.47 102.83,101.01 102.88,100.55 102.92,100.10 102.97,99.64 103.01,99.18 103.06,98.72 103.11,98.26 103.15,97.80 103.20,97.34 103.25,96.88 103.31,96.43 103.36,95.97 103.42,95.51 103.48,95.05 103.54,94.59 103.61,94.13 103.68,93.67 103.75,93.21 103.83,92.76 103.92,92.30 104.01,91.84 104.10,91.38 104.20,90.92 104.31,90.46 104.42,90.00 104.54,89.54 104.66,89.08 104.79,88.63 104.93,88.17 105.08,87.71 105.23,87.25 105.40,86.79 105.57,86.33 105.75,85.87 105.94,85.41 106.13,84.96 106.34,84.50 106.55,84.04 106.77,83.58 107.01,83.12 107.25,82.66 107.50,82.20 107.76,81.74 108.03,81.29 108.31,80.83 108.61,80.37 108.91,79.91 109.22,79.45 109.54,78.99 109.87,78.53 110.22,78.07 110.56,77.62 110.93,77.16 111.30,76.70 111.68,76.24 112.07,75.78 112.48,75.32 112.89,74.86 113.31,74.40 113.74,73.95 114.18,73.49 114.63,73.03 115.09,72.57 115.56,72.11 116.04,71.65 116.52,71.19 117.02,70.73 117.52,70.28 118.04,69.82 118.55,69.36 119.08,68.90 119.62,68.44 120.16,67.98 120.71,67.52 121.27,67.06 121.83,66.60 122.40,66.15 122.98,65.69 123.56,65.23 124.15,64.77 124.74,64.31 125.34,63.85 125.94,63.39 126.55,62.93 127.16,62.48 127.78,62.02 128.40,61.56 129.02,61.10 129.65,60.64 130.28,60.18 130.91,59.72 131.54,59.26 132.17,58.81 132.81,58.35 133.45,57.89 134.09,57.43 134.73,56.97 135.37,56.51 136.00,56.05 136.64,55.59 137.28,55.14 137.92,54.68 138.56,54.22 139.19,53.76 139.83,53.30 140.46,52.84 141.09,52.38 141.72,51.92 142.34,51.47 142.96,51.01 143.58,50.55 144.20,50.09 144.81,49.63 145.41,49.17 146.02,48.71 146.62,48.25 147.21,47.80 147.80,47.34 148.39,46.88 148.97,46.42 149.54,45.96 150.11,45.50 150.68,45.04 203.15,45.04 203.72,45.50 204.29,45.96 204.86,46.42 205.44,46.88 206.02,47.34 206.62,47.80 207.21,48.25 207.81,48.71 208.41,49.17 209.02,49.63 209.63,50.09 210.25,50.55 210.87,51.01 211.49,51.47 212.11,51.92 212.74,52.38 213.37,52.84 214.00,53.30 214.64,53.76 215.27,54.22 215.91,54.68 216.55,55.14 217.18,55.59 217.82,56.05 218.46,56.51 219.10,56.97 219.74,57.43 220.38,57.89 221.02,58.35 221.65,58.81 222.29,59.26 222.92,59.72 223.55,60.18 224.18,60.64 224.81,61.10 225.43,61.56 226.05,62.02 226.66,62.48 227.28,62.93 227.88,63.39 228.49,63.85 229.09,64.31 229.68,64.77 230.27,65.23 230.85,65.69 231.43,66.15 232.00,66.60 232.56,67.06 233.12,67.52 233.67,67.98 234.21,68.44 234.74,68.90 235.27,69.36 235.79,69.82 236.31,70.28 236.81,70.73 237.30,71.19 237.79,71.65 238.27,72.11 238.74,72.57 239.20,73.03 239.65,73.49 240.09,73.95 240.52,74.40 240.94,74.86 241.35,75.32 241.75,75.78 242.15,76.24 242.53,76.70 242.90,77.16 243.26,77.62 243.61,78.07 243.96,78.53 244.29,78.99 244.61,79.45 244.92,79.91 245.22,80.37 245.51,80.83 245.79,81.29 246.07,81.74 246.33,82.20 246.58,82.66 246.82,83.12 247.05,83.58 247.28,84.04 247.49,84.50 247.70,84.96 247.89,85.41 248.08,85.87 248.26,86.33 248.43,86.79 248.59,87.25 248.75,87.71 248.90,88.17 249.03,88.63 249.17,89.08 249.29,89.54 249.41,90.00 249.52,90.46 249.63,90.92 249.73,91.38 249.82,91.84 249.91,92.30 249.99,92.76 250.08,93.21 250.15,93.67 250.22,94.13 250.29,94.59 250.35,95.05 250.41,95.51 250.47,95.97 250.52,96.43 250.57,96.88 250.62,97.34 250.67,97.80 250.72,98.26 250.77,98.72 250.81,99.18 250.86,99.64 250.91,100.10 250.95,100.55 251.00,101.01 251.05,101.47 251.10,101.93 251.15,102.39 251.20,102.85 251.26,103.31 251.31,103.77 251.37,104.22 251.43,104.68 251.50,105.14 251.57,105.60 251.64,106.06 251.72,106.52 251.80,106.98 251.89,107.44 251.98,107.89 252.08,108.35 252.18,108.81 252.28,109.27 252.40,109.73 252.51,110.19 252.64,110.65 252.77,111.11 252.90,111.56 253.04,112.02 253.19,112.48 253.35,112.94 253.51,113.40 253.67,113.86 253.85,114.32 254.03,114.78 254.22,115.24 254.41,115.69 254.61,116.15 254.82,116.61 255.04,117.07 255.26,117.53 255.49,117.99 255.73,118.45 255.97,118.91 256.22,119.36 256.48,119.82 256.75,120.28 257.02,120.74 257.30,121.20 257.58,121.66 257.87,122.12 258.17,122.58 258.47,123.03 258.78,123.49 259.10,123.95 259.42,124.41 259.75,124.87 260.08,125.33 260.41,125.79 260.76,126.25 261.10,126.70 261.46,127.16 261.82,127.62 262.18,128.08 262.54,128.54 262.91,129.00 263.29,129.46 263.66,129.92 264.04,130.37 264.42,130.83 264.81,131.29 265.20,131.75 265.59,132.21 265.98,132.67 266.38,133.13 266.77,133.59 267.17,134.04 267.56,134.50 267.96,134.96 268.36,135.42 268.76,135.88 269.16,136.34 269.55,136.80 269.95,137.26 270.35,137.72 270.74,138.17 271.13,138.63 271.52,139.09 271.91,139.55 272.30,140.01 272.68,140.47 273.06,140.93 273.43,141.39 273.81,141.84 274.18,142.30 274.54,142.76 274.90,143.22 275.25,143.68 275.60,144.14 275.95,144.60 276.28,145.06 276.62,145.51 276.94,145.97 277.26,146.43 277.58,146.89 277.88,147.35 278.18,147.81 278.47,148.27 278.76,148.73 279.03,149.18 279.30,149.64 279.56,150.10 279.81,150.56 280.05,151.02 280.29,151.48 280.51,151.94 280.73,152.40 280.93,152.85 281.13,153.31 281.31,153.77 281.49,154.23 281.65,154.69 281.81,155.15 281.95,155.61 282.09,156.07 282.21,156.52 282.32,156.98 282.42,157.44 282.51,157.90 282.59,158.36 282.66,158.82 282.71,159.28 282.75,159.74 282.79,160.20 282.81,160.65 282.82,161.11 282.81,161.57 282.80,162.03 282.77,162.49 282.73,162.95 282.68,163.41 282.62,163.87 282.54,164.32 282.45,164.78 282.36,165.24 282.24,165.70 282.12,166.16 281.98,166.62 281.83,167.08 281.68,167.54 281.50,167.99 281.32,168.45 281.12,168.91 280.92,169.37 280.70,169.83 280.47,170.29 280.23,170.75 279.97,171.21 279.71,171.66 279.43,172.12 279.15,172.58 278.85,173.04 278.54,173.50 278.22,173.96 277.89,174.42 277.55,174.88 277.19,175.33 276.83,175.79 276.46,176.25 276.08,176.71 275.69,177.17 275.28,177.63 274.88,178.09 274.45,178.55 274.03,179.00 273.59,179.46 273.14,179.92 272.69,180.38 272.22,180.84 271.75,181.30 271.27,181.76 270.79,182.22 270.29,182.68 269.79,183.13 269.28,183.59 268.77,184.05 268.25,184.51 267.72,184.97 267.19,185.43 266.65,185.89 266.11,186.35 265.56,186.80 265.00,187.26 264.44,187.72 263.88,188.18 263.31,188.64 262.74,189.10 262.16,189.56 261.58,190.02 261.00,190.47 260.42,190.93 259.83,191.39 259.24,191.85 258.65,192.31 258.06,192.77 257.46,193.23 256.86,193.69 256.27,194.14 255.67,194.60 255.07,195.06 254.47,195.52 253.87,195.98 253.27,196.44 252.68,196.90 252.08,197.36 251.48,197.81 250.89,198.27 250.30,198.73 249.71,199.19 249.12,199.65 248.53,200.11 247.95,200.57 247.37,201.03 246.79,201.48 246.22,201.94 245.65,202.40 245.08,202.86 244.52,203.32 243.97,203.78 243.41,204.24 242.87,204.70 242.32,205.15 241.79,205.61 241.25,206.07 240.73,206.53 240.21,206.99 239.69,207.45 239.19,207.91 238.68,208.37 238.19,208.83 237.70,209.28 237.22,209.74 236.75,210.20 236.28,210.66 235.82,211.12 235.37,211.58 234.93,212.04 234.49,212.50 234.06,212.95 233.64,213.41 233.23,213.87 232.82,214.33 232.42,214.79 232.04,215.25 231.66,215.71 231.29,216.17 230.92,216.62 230.57,217.08 230.22,217.54 229.88,218.00 229.55,218.46 229.23,218.92 228.92,219.38 228.62,219.84 228.32,220.29 228.03,220.75 227.76,221.21 227.48,221.67 227.22,222.13 226.97,222.59 226.72,223.05 226.48,223.51 226.25,223.96 226.02,224.42 225.81,224.88 225.60,225.34 225.40,225.80 225.20,226.26 225.01,226.72 224.83,227.18 224.66,227.63 224.49,228.09 224.33,228.55 224.17,229.01 224.02,229.47 223.87,229.93 223.73,230.39 223.60,230.85 223.46,231.31 223.34,231.76 223.22,232.22 223.10,232.68 222.98,233.14 222.87,233.60 222.77,234.06 222.66,234.52 222.56,234.98 222.46,235.43 222.36,235.89 222.27,236.35 222.17,236.81 222.08,237.27 221.99,237.73 221.90,238.19 221.80,238.65 221.71,239.10 221.62,239.56 221.53,240.02 221.44,240.48 221.35,240.94 221.25,241.40 221.16,241.86 221.06,242.32 220.96,242.77 220.86,243.23 220.76,243.69 220.65,244.15 220.54,244.61 220.43,245.07 220.31,245.53 220.20,245.99 220.07,246.44 219.95,246.90 219.81,247.36 219.68,247.82 219.54,248.28 219.39,248.74 219.24,249.20 219.09,249.66 218.93,250.11 218.76,250.57 218.60,251.03 218.42,251.49 218.24,251.95 218.05,252.41 217.86,252.87 217.66,253.33 217.45,253.79 217.24,254.24 217.03,254.70 216.80,255.16 216.57,255.62 216.34,256.08 216.10,256.54 215.85,257.00 215.60,257.46 215.34,257.91 215.08,258.37 214.81,258.83 214.53,259.29 214.25,259.75 213.96,260.21 213.67,260.67 213.37,261.13 213.06,261.58 212.75,262.04 212.44,262.50 212.12,262.96 211.79,263.42 211.46,263.88 211.13,264.34 210.79,264.80 210.44,265.25 210.09,265.71 209.74,266.17 209.39,266.63 209.02,267.09 208.66,267.55 208.29,268.01 207.92,268.47 207.55,268.92 207.17,269.38 206.79,269.84 206.41,270.30 206.03,270.76 205.64,271.22 205.25,271.68 204.87,272.14 204.47,272.59 204.08,273.05 203.69,273.51 203.29,273.97 202.90,274.43 202.50,274.89 202.11,275.35 201.71,275.81 201.31,276.27 200.92,276.72 200.52,277.18 200.12,277.64 199.73,278.10 199.34,278.56 198.94,279.02 198.55,279.48 155.28,279.48" style="stroke-width: 1.07;stroke: #333333;stroke-linecap: butt;fill: #F8766D;" />
<polygon points="395.14,296.84 394.77,296.33 394.40,295.82 394.03,295.31 393.65,294.80 393.26,294.29 392.87,293.78 392.48,293.27 392.08,292.76 391.67,292.25 391.27,291.74 390.85,291.23 390.43,290.73 390.01,290.22 389.58,289.71 389.15,289.20 388.71,288.69 388.26,288.18 387.82,287.67 387.36,287.16 386.91,286.65 386.45,286.14 385.98,285.63 385.51,285.12 385.04,284.61 384.56,284.10 384.07,283.59 383.59,283.08 383.09,282.57 382.60,282.06 382.10,281.55 381.59,281.04 381.09,280.53 380.57,280.02 380.06,279.51 379.54,279.00 379.02,278.49 378.49,277.98 377.96,277.47 377.43,276.96 376.89,276.45 376.35,275.94 375.81,275.43 375.27,274.92 374.72,274.41 374.16,273.90 373.61,273.39 373.05,272.88 372.49,272.37 371.93,271.86 371.37,271.35 370.80,270.84 370.23,270.34 369.66,269.83 369.09,269.32 368.52,268.81 367.94,268.30 367.36,267.79 366.78,267.28 366.20,266.77 365.62,266.26 365.04,265.75 364.46,265.24 363.87,264.73 363.29,264.22 362.70,263.71 362.12,263.20 361.53,262.69 360.94,262.18 360.36,261.67 359.77,261.16 359.18,260.65 358.60,260.14 358.01,259.63 357.43,259.12 356.84,258.61 356.26,258.10 355.68,257.59 355.10,257.08 354.52,256.57 353.94,256.06 353.36,255.55 352.79,255.04 352.21,254.53 351.64,254.02 351.07,253.51 350.50,253.00 349.94,252.49 349.38,251.98 348.82,251.47 348.26,250.96 347.71,250.45 347.16,249.95 346.61,249.44 346.07,248.93 345.53,248.42 344.99,247.91 344.46,247.40 343.93,246.89 343.40,246.38 342.88,245.87 342.36,245.36 341.85,244.85 341.35,244.34 340.84,243.83 340.35,243.32 339.85,242.81 339.37,242.30 338.88,241.79 338.41,241.28 337.93,240.77 337.47,240.26 337.01,239.75 336.55,239.24 336.11,238.73 335.66,238.22 335.23,237.71 334.80,237.20 334.38,236.69 333.96,236.18 333.55,235.67 333.15,235.16 332.76,234.65 332.37,234.14 331.99,233.63 331.61,233.12 331.24,232.61 330.89,232.10 330.54,231.59 330.19,231.08 329.86,230.57 329.53,230.06 329.21,229.56 328.90,229.05 328.60,228.54 328.30,228.03 328.01,227.52 327.73,227.01 327.46,226.50 327.20,225.99 326.95,225.48 326.70,224.97 326.47,224.46 326.24,223.95 326.02,223.44 325.81,222.93 325.61,222.42 325.42,221.91 325.23,221.40 325.06,220.89 324.90,220.38 324.74,219.87 324.59,219.36 324.45,218.85 324.33,218.34 324.20,217.83 324.09,217.32 323.99,216.81 323.90,216.30 323.81,215.79 323.74,215.28 323.67,214.77 323.61,214.26 323.56,213.75 323.52,213.24 323.49,212.73 323.47,212.22 323.45,211.71 323.45,211.20 323.45,210.69 323.46,210.18 323.48,209.67 323.51,209.17 323.54,208.66 323.59,208.15 323.63,207.64 323.69,207.13 323.76,206.62 323.83,206.11 323.91,205.60 324.00,205.09 324.10,204.58 324.20,204.07 324.31,203.56 324.42,203.05 324.55,202.54 324.67,202.03 324.81,201.52 324.95,201.01 325.09,200.50 325.25,199.99 325.40,199.48 325.57,198.97 325.73,198.46 325.90,197.95 326.08,197.44 326.26,196.93 326.45,196.42 326.64,195.91 326.83,195.40 327.03,194.89 327.23,194.38 327.43,193.87 327.64,193.36 327.85,192.85 328.06,192.34 328.27,191.83 328.49,191.32 328.71,190.81 328.93,190.30 329.15,189.79 329.37,189.28 329.60,188.78 329.82,188.27 330.05,187.76 330.27,187.25 330.50,186.74 330.73,186.23 330.96,185.72 331.18,185.21 331.41,184.70 331.63,184.19 331.86,183.68 332.08,183.17 332.31,182.66 332.53,182.15 332.75,181.64 332.97,181.13 333.19,180.62 333.41,180.11 333.62,179.60 333.83,179.09 334.04,178.58 334.25,178.07 334.46,177.56 334.66,177.05 334.86,176.54 335.06,176.03 335.25,175.52 335.45,175.01 335.64,174.50 335.82,173.99 336.01,173.48 336.19,172.97 336.37,172.46 336.54,171.95 336.72,171.44 336.89,170.93 337.05,170.42 337.22,169.91 337.38,169.40 337.54,168.89 337.69,168.39 337.84,167.88 337.99,167.37 338.13,166.86 338.28,166.35 338.42,165.84 338.56,165.33 338.69,164.82 338.82,164.31 338.95,163.80 339.08,163.29 339.20,162.78 339.32,162.27 339.44,161.76 339.56,161.25 339.68,160.74 339.79,160.23 339.90,159.72 340.01,159.21 340.12,158.70 340.22,158.19 340.33,157.68 340.43,157.17 340.53,156.66 340.63,156.15 340.73,155.64 340.83,155.13 340.93,154.62 341.03,154.11 341.12,153.60 341.22,153.09 341.31,152.58 341.41,152.07 341.50,151.56 341.60,151.05 341.69,150.54 341.78,150.03 341.88,149.52 341.97,149.01 342.07,148.50 342.16,148.00 342.26,147.49 342.35,146.98 342.45,146.47 342.55,145.96 342.65,145.45 342.75,144.94 342.85,144.43 342.95,143.92 343.05,143.41 343.15,142.90 343.26,142.39 343.36,141.88 343.47,141.37 343.58,140.86 343.69,140.35 343.80,139.84 343.91,139.33 344.03,138.82 344.15,138.31 344.26,137.80 344.38,137.29 344.50,136.78 344.63,136.27 344.75,135.76 344.88,135.25 345.01,134.74 345.14,134.23 345.27,133.72 345.40,133.21 345.54,132.70 345.68,132.19 345.82,131.68 345.96,131.17 346.10,130.66 346.25,130.15 346.39,129.64 346.54,129.13 346.69,128.62 346.84,128.11 347.00,127.61 347.15,127.10 347.31,126.59 347.47,126.08 347.63,125.57 347.80,125.06 347.96,124.55 348.13,124.04 348.29,123.53 348.46,123.02 348.63,122.51 348.81,122.00 348.98,121.49 349.16,120.98 349.33,120.47 349.51,119.96 349.69,119.45 349.87,118.94 350.06,118.43 350.24,117.92 350.43,117.41 350.61,116.90 350.80,116.39 350.99,115.88 351.18,115.37 351.37,114.86 351.57,114.35 351.76,113.84 351.96,113.33 352.15,112.82 352.35,112.31 352.55,111.80 352.75,111.29 352.95,110.78 353.15,110.27 353.35,109.76 353.55,109.25 353.76,108.74 353.96,108.23 354.17,107.72 354.37,107.22 354.58,106.71 354.78,106.20 354.99,105.69 355.20,105.18 355.41,104.67 355.62,104.16 355.83,103.65 356.04,103.14 356.25,102.63 356.46,102.12 356.67,101.61 356.88,101.10 357.09,100.59 357.30,100.08 357.52,99.57 357.73,99.06 357.94,98.55 358.15,98.04 358.36,97.53 358.58,97.02 358.79,96.51 359.00,96.00 359.21,95.49 359.43,94.98 359.64,94.47 359.85,93.96 360.06,93.45 360.28,92.94 360.49,92.43 360.70,91.92 360.91,91.41 361.12,90.90 361.33,90.39 361.54,89.88 361.75,89.37 361.96,88.86 362.17,88.35 362.38,87.84 362.59,87.33 362.80,86.83 363.01,86.32 363.22,85.81 363.43,85.30 363.63,84.79 363.84,84.28 364.05,83.77 364.25,83.26 364.46,82.75 364.67,82.24 364.87,81.73 365.08,81.22 365.28,80.71 365.49,80.20 365.69,79.69 365.90,79.18 366.11,78.67 366.31,78.16 366.52,77.65 366.72,77.14 366.93,76.63 367.13,76.12 367.34,75.61 367.54,75.10 367.75,74.59 367.95,74.08 368.16,73.57 368.36,73.06 368.57,72.55 368.78,72.04 368.99,71.53 369.20,71.02 369.40,70.51 369.61,70.00 369.82,69.49 370.04,68.98 370.25,68.47 370.46,67.96 370.67,67.45 370.89,66.94 371.11,66.44 371.32,65.93 371.54,65.42 371.76,64.91 371.98,64.40 372.21,63.89 372.43,63.38 372.65,62.87 372.88,62.36 373.11,61.85 373.34,61.34 373.57,60.83 373.81,60.32 374.04,59.81 374.28,59.30 374.52,58.79 374.76,58.28 375.01,57.77 375.25,57.26 375.50,56.75 375.75,56.24 376.00,55.73 376.26,55.22 376.51,54.71 376.77,54.20 377.03,53.69 377.30,53.18 377.56,52.67 377.83,52.16 378.10,51.65 378.37,51.14 378.65,50.63 378.92,50.12 379.20,49.61 379.49,49.10 379.77,48.59 380.06,48.08 380.35,47.57 380.64,47.06 380.93,46.55 381.23,46.05 381.52,45.54 381.82,45.03 382.13,44.52 382.43,44.01 382.74,43.50 383.04,42.99 383.35,42.48 383.67,41.97 383.98,41.46 384.29,40.95 384.61,40.44 384.93,39.93 385.25,39.42 385.57,38.91 385.89,38.40 386.22,37.89 386.54,37.38 386.87,36.87 387.20,36.36 437.32,36.36 437.64,36.87 437.97,37.38 438.30,37.89 438.62,38.40 438.94,38.91 439.26,39.42 439.58,39.93 439.90,40.44 440.22,40.95 440.53,41.46 440.85,41.97 441.16,42.48 441.47,42.99 441.78,43.50 442.08,44.01 442.39,44.52 442.69,45.03 442.99,45.54 443.29,46.05 443.58,46.55 443.88,47.06 444.17,47.57 444.46,48.08 444.74,48.59 445.03,49.10 445.31,49.61 445.59,50.12 445.87,50.63 446.14,51.14 446.41,51.65 446.68,52.16 446.95,52.67 447.22,53.18 447.48,53.69 447.74,54.20 448.00,54.71 448.26,55.22 448.51,55.73 448.76,56.24 449.01,56.75 449.26,57.26 449.51,57.77 449.75,58.28 449.99,58.79 450.23,59.30 450.47,59.81 450.71,60.32 450.94,60.83 451.17,61.34 451.40,61.85 451.63,62.36 451.86,62.87 452.08,63.38 452.31,63.89 452.53,64.40 452.75,64.91 452.97,65.42 453.19,65.93 453.41,66.44 453.62,66.94 453.84,67.45 454.05,67.96 454.27,68.47 454.48,68.98 454.69,69.49 454.90,70.00 455.11,70.51 455.32,71.02 455.53,71.53 455.73,72.04 455.94,72.55 456.15,73.06 456.36,73.57 456.56,74.08 456.77,74.59 456.97,75.10 457.18,75.61 457.38,76.12 457.59,76.63 457.79,77.14 458.00,77.65 458.20,78.16 458.41,78.67 458.61,79.18 458.82,79.69 459.02,80.20 459.23,80.71 459.43,81.22 459.64,81.73 459.85,82.24 460.05,82.75 460.26,83.26 460.47,83.77 460.67,84.28 460.88,84.79 461.09,85.30 461.30,85.81 461.50,86.32 461.71,86.83 461.92,87.33 462.13,87.84 462.34,88.35 462.55,88.86 462.76,89.37 462.97,89.88 463.18,90.39 463.39,90.90 463.60,91.41 463.81,91.92 464.03,92.43 464.24,92.94 464.45,93.45 464.66,93.96 464.87,94.47 465.09,94.98 465.30,95.49 465.51,96.00 465.72,96.51 465.94,97.02 466.15,97.53 466.36,98.04 466.57,98.55 466.79,99.06 467.00,99.57 467.21,100.08 467.42,100.59 467.63,101.10 467.85,101.61 468.06,102.12 468.27,102.63 468.48,103.14 468.69,103.65 468.90,104.16 469.11,104.67 469.31,105.18 469.52,105.69 469.73,106.20 469.94,106.71 470.14,107.22 470.35,107.72 470.55,108.23 470.76,108.74 470.96,109.25 471.16,109.76 471.37,110.27 471.57,110.78 471.77,111.29 471.97,111.80 472.16,112.31 472.36,112.82 472.56,113.33 472.75,113.84 472.95,114.35 473.14,114.86 473.33,115.37 473.52,115.88 473.71,116.39 473.90,116.90 474.09,117.41 474.27,117.92 474.46,118.43 474.64,118.94 474.82,119.45 475.00,119.96 475.18,120.47 475.36,120.98 475.53,121.49 475.71,122.00 475.88,122.51 476.05,123.02 476.22,123.53 476.39,124.04 476.55,124.55 476.72,125.06 476.88,125.57 477.04,126.08 477.20,126.59 477.36,127.10 477.52,127.61 477.67,128.11 477.82,128.62 477.97,129.13 478.12,129.64 478.27,130.15 478.41,130.66 478.56,131.17 478.70,131.68 478.84,132.19 478.97,132.70 479.11,133.21 479.24,133.72 479.38,134.23 479.51,134.74 479.63,135.25 479.76,135.76 479.89,136.27 480.01,136.78 480.13,137.29 480.25,137.80 480.37,138.31 480.48,138.82 480.60,139.33 480.71,139.84 480.82,140.35 480.93,140.86 481.04,141.37 481.15,141.88 481.26,142.39 481.36,142.90 481.46,143.41 481.57,143.92 481.67,144.43 481.77,144.94 481.87,145.45 481.97,145.96 482.06,146.47 482.16,146.98 482.26,147.49 482.35,148.00 482.45,148.50 482.54,149.01 482.64,149.52 482.73,150.03 482.82,150.54 482.92,151.05 483.01,151.56 483.11,152.07 483.20,152.58 483.30,153.09 483.39,153.60 483.49,154.11 483.58,154.62 483.68,155.13 483.78,155.64 483.88,156.15 483.98,156.66 484.08,157.17 484.18,157.68 484.29,158.19 484.40,158.70 484.50,159.21 484.61,159.72 484.72,160.23 484.84,160.74 484.95,161.25 485.07,161.76 485.19,162.27 485.31,162.78 485.44,163.29 485.56,163.80 485.69,164.31 485.82,164.82 485.96,165.33 486.10,165.84 486.24,166.35 486.38,166.86 486.52,167.37 486.67,167.88 486.83,168.39 486.98,168.89 487.14,169.40 487.30,169.91 487.46,170.42 487.63,170.93 487.80,171.44 487.97,171.95 488.14,172.46 488.32,172.97 488.50,173.48 488.69,173.99 488.88,174.50 489.07,175.01 489.26,175.52 489.46,176.03 489.65,176.54 489.85,177.05 490.06,177.56 490.26,178.07 490.47,178.58 490.68,179.09 490.89,179.60 491.11,180.11 491.32,180.62 491.54,181.13 491.76,181.64 491.98,182.15 492.21,182.66 492.43,183.17 492.65,183.68 492.88,184.19 493.10,184.70 493.33,185.21 493.56,185.72 493.79,186.23 494.01,186.74 494.24,187.25 494.47,187.76 494.69,188.27 494.92,188.78 495.14,189.28 495.36,189.79 495.59,190.30 495.81,190.81 496.02,191.32 496.24,191.83 496.46,192.34 496.67,192.85 496.88,193.36 497.08,193.87 497.29,194.38 497.49,194.89 497.68,195.40 497.88,195.91 498.07,196.42 498.25,196.93 498.43,197.44 498.61,197.95 498.78,198.46 498.95,198.97 499.11,199.48 499.27,199.99 499.42,200.50 499.57,201.01 499.70,201.52 499.84,202.03 499.97,202.54 500.09,203.05 500.20,203.56 500.31,204.07 500.42,204.58 500.51,205.09 500.60,205.60 500.68,206.11 500.75,206.62 500.82,207.13 500.88,207.64 500.93,208.15 500.97,208.66 501.01,209.17 501.03,209.67 501.05,210.18 501.06,210.69 501.07,211.20 501.06,211.71 501.05,212.22 501.02,212.73 500.99,213.24 500.95,213.75 500.90,214.26 500.84,214.77 500.78,215.28 500.70,215.79 500.62,216.30 500.52,216.81 500.42,217.32 500.31,217.83 500.19,218.34 500.06,218.85 499.92,219.36 499.77,219.87 499.62,220.38 499.45,220.89 499.28,221.40 499.09,221.91 498.91,222.42 498.70,222.93 498.49,223.44 498.27,223.95 498.05,224.46 497.81,224.97 497.57,225.48 497.31,225.99 497.05,226.50 496.78,227.01 496.50,227.52 496.22,228.03 495.92,228.54 495.62,229.05 495.30,229.56 494.98,230.06 494.66,230.57 494.32,231.08 493.98,231.59 493.62,232.10 493.27,232.61 492.90,233.12 492.53,233.63 492.15,234.14 491.76,234.65 491.36,235.16 490.96,235.67 490.55,236.18 490.13,236.69 489.71,237.20 489.28,237.71 488.85,238.22 488.41,238.73 487.96,239.24 487.50,239.75 487.04,240.26 486.58,240.77 486.11,241.28 485.63,241.79 485.15,242.30 484.66,242.81 484.17,243.32 483.67,243.83 483.17,244.34 482.66,244.85 482.15,245.36 481.63,245.87 481.11,246.38 480.59,246.89 480.06,247.40 479.52,247.91 478.99,248.42 478.45,248.93 477.90,249.44 477.36,249.95 476.80,250.45 476.25,250.96 475.69,251.47 475.14,251.98 474.57,252.49 474.01,253.00 473.44,253.51 472.87,254.02 472.30,254.53 471.73,255.04 471.15,255.55 470.58,256.06 470.00,256.57 469.42,257.08 468.84,257.59 468.25,258.10 467.67,258.61 467.09,259.12 466.50,259.63 465.92,260.14 465.33,260.65 464.74,261.16 464.16,261.67 463.57,262.18 462.98,262.69 462.40,263.20 461.81,263.71 461.23,264.22 460.64,264.73 460.06,265.24 459.47,265.75 458.89,266.26 458.31,266.77 457.73,267.28 457.15,267.79 456.57,268.30 456.00,268.81 455.42,269.32 454.85,269.83 454.28,270.34 453.71,270.84 453.14,271.35 452.58,271.86 452.02,272.37 451.46,272.88 450.90,273.39 450.35,273.90 449.80,274.41 449.25,274.92 448.70,275.43 448.16,275.94 447.62,276.45 447.08,276.96 446.55,277.47 446.02,277.98 445.50,278.49 444.97,279.00 444.45,279.51 443.94,280.02 443.43,280.53 442.92,281.04 442.41,281.55 441.92,282.06 441.42,282.57 440.93,283.08 440.44,283.59 439.96,284.10 439.48,284.61 439.00,285.12 438.53,285.63 438.07,286.14 437.61,286.65 437.15,287.16 436.70,287.67 436.25,288.18 435.81,288.69 435.37,289.20 434.93,289.71 434.51,290.22 434.08,290.73 433.66,291.23 433.25,291.74 432.84,292.25 432.43,292.76 432.03,293.27 431.64,293.78 431.25,294.29 430.87,294.80 430.48,295.31 430.11,295.82 429.74,296.33 429.37,296.84 395.14,296.84" style="stroke-width: 1.07;stroke: #333333;stroke-linecap: butt;fill: #00BFC4;" />
<line x1="176.91" y1="110.16" x2="176.91" y2="45.04" style="stroke-width: 1.07;stroke: #333333;stroke-linecap: butt;"/>
<line x1="176.91" y1="188.31" x2="176.91" y2="279.48" style="stroke-width: 1.07;stroke: #333333;stroke-linecap: butt;"/>
<polygon points="165.15,110.16 165.15,188.31 188.68,188.31 188.68,110.16 165.15,110.16" style="stroke-width: 1.07;stroke: #333333;stroke-linecap: butt;stroke-linejoin: miter;fill: #F8766D;" />
<line x1="165.15" y1="157.92" x2="188.68" y2="157.92" style="stroke-width: 2.13;stroke: #333333;stroke-linecap: butt;stroke-linejoin: miter;"/>
<line x1="412.26" y1="114.50" x2="412.26" y2="36.36" style="stroke-width: 1.07;stroke: #333333;stroke-linecap: butt;"/>
<line x1="412.26" y1="223.04" x2="412.26" y2="296.84" style="stroke-width: 1.07;stroke: #333333;stroke-linecap: butt;"/>
<polygon points="400.49,114.50 400.49,223.04 424.02,223.04 424.02,114.50 400.49,114.50" style="stroke-width: 1.07;stroke: #333333;stroke-linecap: butt;stroke-linejoin: miter;fill: #00BFC4;" />
<line x1="400.49" y1="175.28" x2="424.02" y2="175.28" style="stroke-width: 2.13;stroke: #333333;stroke-linecap: butt;stroke-linejoin: miter;"/>
</g><g clip-path="url(#c2)">
<g><text x="30.78" y="280.89" text-anchor="end" style="font-family: Arial;font-size: 8.80px;fill: #4D4D4D;" textLength="12.23px" lengthAdjust="spacingAndGlyphs">0.4</text></g>
<g><text x="30.78" y="197.54" text-anchor="end" style="font-family: Arial;font-size: 8.80px;fill: #4D4D4D;" textLength="12.23px" lengthAdjust="spacingAndGlyphs">0.6</text></g>
<g><text x="30.78" y="114.18" text-anchor="end" style="font-family: Arial;font-size: 8.80px;fill: #4D4D4D;" textLength="12.23px" lengthAdjust="spacingAndGlyphs">0.8</text></g>
<g><text x="30.78" y="30.83" text-anchor="end" style="font-family: Arial;font-size: 8.80px;fill: #4D4D4D;" textLength="12.23px" lengthAdjust="spacingAndGlyphs">1.0</text></g>
<g><text x="176.91" y="321.10" text-anchor="middle" style="font-family: Arial;font-size: 8.80px;fill: #4D4D4D;" textLength="37.18px" lengthAdjust="spacingAndGlyphs">nonsocial</text></g>
<g><text x="412.26" y="321.10" text-anchor="middle" style="font-family: Arial;font-size: 8.80px;fill: #4D4D4D;" textLength="22.49px" lengthAdjust="spacingAndGlyphs">social</text></g>
<g><text x="294.59" y="333.69" text-anchor="middle" style="font-family: Arial;font-size: 11.00px;" textLength="54.41px" lengthAdjust="spacingAndGlyphs">Block Type</text></g>
<g><text transform="translate(13.37,166.60) rotate(-90.00)" text-anchor="middle" style="font-family: Arial;font-size: 11.00px;" textLength="111.88px" lengthAdjust="spacingAndGlyphs">Mean Correct Answers</text></g>
<g><text x="569.90" y="150.53" style="font-family: Arial;font-size: 11.00px;" textLength="51.36px" lengthAdjust="spacingAndGlyphs">BlockType</text></g>
<rect x="570.61" y="157.93" width="15.86" height="15.86" style="stroke-width: 1.07;stroke: #333333;stroke-linecap: butt;stroke-linejoin: miter;fill: #F8766D;"/>
<polyline points="578.54,172.78 578.54,170.18" style="stroke-width: 1.07;stroke: #333333;stroke-linecap: butt;stroke-linejoin: miter;"/>
<polyline points="578.54,161.54 578.54,158.95" style="stroke-width: 1.07;stroke: #333333;stroke-linecap: butt;stroke-linejoin: miter;"/>
<rect x="572.06" y="161.54" width="12.96" height="8.64" style="stroke-width: 1.07;stroke: #333333;stroke-linecap: butt;stroke-linejoin: miter;fill: #F8766D;"/>
<polyline points="572.06,165.86 585.02,165.86" style="stroke-width: 1.07;stroke: #333333;stroke-linecap: butt;stroke-linejoin: miter;"/>
<rect x="570.61" y="175.21" width="15.86" height="15.86" style="stroke-width: 1.07;stroke: #333333;stroke-linecap: butt;stroke-linejoin: miter;fill: #00BFC4;"/>
<polyline points="578.54,190.06 578.54,187.46" style="stroke-width: 1.07;stroke: #333333;stroke-linecap: butt;stroke-linejoin: miter;"/>
<polyline points="578.54,178.82 578.54,176.23" style="stroke-width: 1.07;stroke: #333333;stroke-linecap: butt;stroke-linejoin: miter;"/>
<rect x="572.06" y="178.82" width="12.96" height="8.64" style="stroke-width: 1.07;stroke: #333333;stroke-linecap: butt;stroke-linejoin: miter;fill: #00BFC4;"/>
<polyline points="572.06,183.14 585.02,183.14" style="stroke-width: 1.07;stroke: #333333;stroke-linecap: butt;stroke-linejoin: miter;"/>
<g><text x="592.66" y="169.02" style="font-family: Arial;font-size: 8.80px;" textLength="37.18px" lengthAdjust="spacingAndGlyphs">nonsocial</text></g>
<g><text x="592.66" y="186.30" style="font-family: Arial;font-size: 8.80px;" textLength="22.49px" lengthAdjust="spacingAndGlyphs">social</text></g>
<g><text x="35.71" y="14.94" style="font-family: Arial;font-size: 13.20px;" textLength="226.53px" lengthAdjust="spacingAndGlyphs">Correct Answers between Block Types</text></g>
</g>
</svg>